<?xml version="1.0" standalone="no"?>
<!DOCTYPE svg PUBLIC "-//W3C//DTD SVG 20010904//EN"
 "http://www.w3.org/TR/2001/REC-SVG-20010904/DTD/svg10.dtd">
<svg version="1.0" xmlns="http://www.w3.org/2000/svg"
 width="512.000000pt" height="512.000000pt" viewBox="0 0 512.000000 512.000000"
 preserveAspectRatio="xMidYMid meet">

<g transform="translate(0.000000,512.000000) scale(0.100000,-0.100000)"
fill="#000000" stroke="none">
<path d="M3835 5109 c-101 -15 -235 -57 -341 -109 -105 -51 -255 -155 -273
-189 -29 -53 0 -111 56 -111 27 0 49 11 97 48 114 90 249 157 391 194 72 19
117 21 429 25 l349 5 -7 -95 c-32 -436 -321 -790 -741 -908 -72 -20 -108 -23
-350 -26 -171 -3 -266 -1 -260 5 6 5 156 112 335 237 179 125 336 238 348 252
18 20 22 33 18 57 -7 37 -39 66 -71 66 -14 0 -176 -107 -407 -268 -210 -147
-389 -272 -396 -276 -10 -6 -12 3 -7 46 16 134 44 233 100 352 41 85 42 95 14
130 -20 26 -57 34 -94 20 -22 -9 -87 -141 -119 -244 -33 -103 -56 -248 -56
-352 0 -45 -4 -78 -10 -78 -5 0 -56 -46 -113 -102 -106 -106 -200 -234 -263
-361 -74 -145 -134 -374 -134 -507 0 -91 -4 -93 -65 -32 l-55 55 0 76 c0 291
-128 583 -347 792 -217 207 -483 309 -805 309 -77 0 -90 -3 -114 -23 -35 -31
-38 -82 -5 -109 19 -14 41 -18 115 -18 416 0 748 -205 917 -565 55 -117 111
-369 78 -349 -8 4 -176 121 -374 260 -198 139 -372 255 -386 259 -61 15 -110
-80 -63 -125 10 -10 159 -116 329 -235 171 -119 315 -221 320 -227 7 -6 -78
-8 -250 -5 -292 5 -331 12 -493 87 -108 51 -190 110 -278 201 -163 169 -252
371 -270 611 l-7 88 47 0 c57 0 86 25 86 74 0 54 -36 76 -122 76 -125 0 -158
-36 -158 -172 1 -176 38 -336 114 -493 144 -294 391 -501 708 -592 92 -26 97
-27 475 -30 l383 -4 43 -43 c66 -64 115 -142 142 -229 l25 -78 0 -436 0 -436
-48 44 c-47 43 -48 46 -55 114 -28 303 -242 538 -537 591 -104 18 -400 19
-444 0 -52 -22 -66 -50 -66 -132 0 -282 208 -547 486 -618 46 -12 113 -16 261
-16 l199 0 41 -35 c58 -49 119 -145 143 -222 18 -59 20 -93 20 -373 l0 -308
-52 -12 c-29 -7 -94 -32 -144 -56 -80 -39 -97 -43 -137 -38 -64 9 -171 -12
-247 -48 -140 -67 -246 -219 -257 -371 -5 -71 -4 -77 20 -101 l26 -26 491 0
491 0 24 25 c32 31 33 74 2 103 -23 22 -25 22 -460 22 -294 0 -437 3 -437 10
0 24 53 111 87 145 71 69 128 88 273 89 90 1 98 3 160 38 96 54 167 71 264 66
108 -7 176 -35 262 -106 38 -32 80 -65 94 -72 14 -8 72 -17 130 -20 124 -8
175 -29 220 -92 17 -22 30 -45 30 -50 0 -4 -80 -8 -178 -8 -174 0 -179 -1
-200 -23 -29 -31 -28 -72 3 -102 l24 -25 230 0 c229 0 230 0 258 24 25 22 28
30 26 78 -4 128 -94 259 -215 313 -51 23 -83 30 -164 34 l-100 6 -59 52 c-67
60 -174 116 -257 134 l-58 12 0 641 c0 365 5 671 10 711 14 99 67 203 141 275
l59 58 272 4 c315 5 365 15 516 93 199 103 351 290 412 505 30 106 38 265 16
308 -30 58 -50 62 -303 62 -258 0 -332 -8 -450 -49 -166 -57 -310 -169 -407
-314 -87 -132 -126 -249 -141 -428 -6 -65 -7 -66 -66 -118 l-59 -52 0 228 c0
404 25 563 119 760 79 164 172 288 295 394 l70 59 357 0 c276 0 375 3 436 15
485 92 855 476 929 965 19 127 18 253 -1 290 -30 59 -39 60 -427 59 -194 -1
-380 -5 -413 -10z m-79 -2014 c-16 -157 -81 -292 -195 -406 -86 -85 -151 -126
-266 -165 -68 -23 -102 -27 -227 -32 -82 -2 -148 -2 -148 1 0 3 96 73 214 156
154 109 216 158 220 175 12 50 -23 96 -75 96 -12 0 -133 -78 -272 -175 -138
-96 -252 -173 -254 -171 -9 9 30 143 57 202 78 163 220 289 386 344 98 33 142
38 363 39 l204 1 -7 -65z m-2035 -904 c125 -40 234 -132 294 -250 24 -49 47
-121 38 -121 -3 0 -81 53 -172 117 -91 64 -178 121 -192 127 -32 11 -75 -11
-88 -47 -18 -47 1 -69 148 -172 l143 -100 -78 -3 c-243 -9 -457 177 -490 427
l-7 54 169 -6 c133 -4 183 -9 235 -26z"/>
</g>
</svg>
